<?xml version="1.0" encoding="utf-8"?>
<!-- Generator: Adobe Illustrator 24.3.0, SVG Export Plug-In . SVG Version: 6.00 Build 0)  -->
<svg version="1.1" id="Logo_Centered" xmlns="http://www.w3.org/2000/svg" xmlns:xlink="http://www.w3.org/1999/xlink" x="0px"
	 y="0px" viewBox="0 0 867.4 867.4" style="enable-background:new 0 0 867.4 867.4;" xml:space="preserve">
<style type="text/css">
	.st0{fill:#57BCBB;}
	.st1{fill:#0C95D3;}
	.st2{fill:#130D34;}
	.st3{fill:#17142C;}
	.st4{fill:#0D96D4;}
</style>
<g>
	<g>
		<path class="st0" d="M763.8,321.2c-7.7-4.4-15.7-8.3-23.9-11.8c1.3,8.4,2.2,17,2.6,25.7v0.1c0.2,4.2,0.3,8.5,0.3,12.7
			c0,2.5-0.1,5-0.2,7.5c-0.2,8.4-0.8,16.7-1.9,24.9c-0.8,6.5-1.9,13-3.2,19.4c-1.7,8-3.7,15.9-6.1,23.7c-6.3,20.5-15.1,39.8-26,57.8
			c-3.9,6.4-8.1,12.6-12.6,18.6c-3.5,4.8-7.1,9.5-11.1,14c-4.8,5.7-9.9,11.2-15.2,16.4c-4.2,4.2-8.6,8.4-13.2,12.2
			c-5.7,5-11.7,9.7-17.8,14c5.7,5.1,11.7,10,17.8,14.7c6.1-4.6,12.1-9.5,17.9-14.6c4.6-4,9-8.2,13.2-12.6
			c5.3-5.3,10.3-10.8,15.2-16.6c3.9-4.6,7.5-9.3,11.1-14.1c4.4-6,8.5-12.1,12.5-18.5c10.3-16.6,18.9-34.4,25.6-53.1
			c3-8.2,5.5-16.6,7.7-25.2c1.7-6.8,3.2-13.7,4.4-20.7c1.5-8.6,2.6-17.4,3.3-26.2c0.6-7,0.8-14.2,0.8-21.3v-0.4
			C765.1,338.9,764.6,330,763.8,321.2z"/>
		<path class="st1" d="M625.1,513.8c-3.9-4.5-7.6-9.2-11.1-14c-4.5-6-8.6-12.2-12.6-18.6c-10.9-17.9-19.7-37.3-26-57.8
			c-2.4-7.8-4.4-15.6-6.1-23.7c-1.3-6.4-2.4-12.9-3.2-19.4c-1.1-8.2-1.7-16.5-1.9-24.9c-0.1-2.5-0.2-5-0.2-7.5
			c0-4.2,0.1-8.5,0.3-12.7v-0.1c6-3,12.1-5.6,18.4-8c7.5-2.8,15.3-5.2,23.2-7.1c6.1-1.5,12.3-2.6,18.6-3.5c7.5-1.1,15.2-1.8,23-2
			c1.9-0.1,3.9-0.1,5.7-0.1c1.9,0,3.9,0,5.7,0.1c7.8,0.2,15.5,0.9,23,2c6.3,0.9,12.5,2.1,18.6,3.5c7.9,2,15.7,4.4,23.2,7.1
			c-0.7-8.4-1.9-16.6-3.5-24.8c-7.9-2.5-15.9-4.5-24.2-6.1c-6.3-1.2-12.7-2.2-19.3-2.8c-7.8-0.8-15.6-1.3-23.6-1.3
			c-0.1,0-0.1,0-0.1,0c-0.1,0-0.1,0-0.1,0c-8,0-15.8,0.4-23.6,1.3c-6.5,0.7-12.9,1.6-19.3,2.8c-8.3,1.6-16.3,3.6-24.2,6.1
			c-6.6,2.1-13,4.4-19.3,7.1H567c-8.3,3.5-16.2,7.4-23.9,11.8c-0.8,8.8-1.3,17.7-1.3,26.7v0.4c0,7.1,0.3,14.3,0.8,21.3
			c0.7,8.9,1.8,17.6,3.3,26.2c1.2,7,2.6,13.8,4.4,20.6c2.1,8.6,4.7,17,7.6,25.2c6.6,18.7,15.3,36.5,25.6,53.1
			c3.9,6.4,8,12.5,12.5,18.5c3.5,4.9,7.2,9.5,11.1,14.1c4.8,5.7,9.9,11.3,15.1,16.6c6.2-4.2,12.2-8.9,17.9-13.7
			C634.9,525,629.9,519.5,625.1,513.8z"/>
		<path class="st2" d="M653.5,454.8c4.6-7.3,8.8-14.8,12.5-22.7c5.2-11,9.4-22.7,12.6-34.8c1.8-7.1,3.2-14.5,4.2-21.9
			c-7.2-1.5-14.6-2.5-22.1-2.8c-2.4-0.1-4.8-0.2-7.2-0.2c-2.4,0-4.8,0.1-7.2,0.2c-7.5,0.4-14.9,1.3-22.1,2.8
			c1,7.5,2.5,14.8,4.2,21.9c3.1,12.1,7.3,23.7,12.6,34.8C644.6,440,648.8,447.6,653.5,454.8z"/>
		<path class="st2" d="M606.7,380.3c-7.3,2.5-14.4,5.6-21.1,9.2c1.3,7.8,3.1,15.3,5.1,22.8c5.6,19.9,13.7,38.7,23.9,56.1
			c3.9,6.6,8,13.1,12.5,19.2c3.5,4.9,7.3,9.6,11.1,14.2c4.8,5.7,9.9,11.2,15.2,16.3c5.3-5.2,10.4-10.7,15.2-16.3
			c3.9-4.6,7.6-9.3,11.1-14.2c4.5-6.1,8.7-12.6,12.5-19.2c10.2-17.4,18.3-36.3,23.9-56.1c2.1-7.5,3.8-15.1,5.1-22.8
			c1.1-6.2,2-12.4,2.6-18.7v-0.1c0.7-7.5,1.1-15.2,1.1-22.9v-1.2c-7.3-3.1-14.8-5.7-22.5-7.9c-5.9-1.6-12-3-18.1-4
			c-7.4-1.2-14.9-2.1-22.5-2.4c-2.7-0.1-5.5-0.2-8.3-0.2c-2.7,0-5.5,0.1-8.3,0.2c-7.6,0.3-15.2,1.2-22.5,2.5c-6.2,1-12.2,2.3-18.1,4
			v0.1c-7.8,2.1-15.2,4.7-22.5,7.9v1.1c0,7.7,0.4,15.3,1.1,22.9c6.9-3.4,14.2-6.3,21.7-8.7c5.7-1.8,11.7-3.3,17.7-4.5
			c7.2-1.5,14.6-2.3,22.2-2.7c2.9-0.2,5.8-0.3,8.8-0.3s5.9,0.1,8.8,0.3c7.6,0.4,15,1.3,22.2,2.7c6,1.2,11.9,2.7,17.7,4.5
			c-0.4,6.1-1.1,12.2-2,18.2v0.1c-1.1,7.5-2.6,14.8-4.5,22c-4.3,16.7-10.6,32.7-18.6,47.6c-3.8,7.1-8,14-12.5,20.5
			c-3.5,5.1-7.2,10-11.1,14.8c-3.9-4.8-7.6-9.7-11.1-14.8c-4.5-6.6-8.7-13.4-12.5-20.5c-8-14.9-14.3-30.9-18.6-47.6
			C609.4,395.1,607.9,387.8,606.7,380.3z"/>
	</g>
	<g>
		<rect x="438.9" y="341.8" class="st2" width="33.5" height="177.2"/>
		<path class="st2" d="M182.2,343v115.2c0,18.2-14.8,33-33,33c-9.1,0-17.3-3.7-23.3-9.7l-23.7,23.7c12,12,28.6,19.5,47,19.5
			s35-7.4,47-19.5c12-12,19.5-28.6,19.5-47V343H182.2z"/>
		<path class="st2" d="M297.5,472.5c-23.2-23.2-23.2-61,0-84.2c23.2-23.2,61-23.2,84.2,0l0,0l23.7-23.7l0,0
			c-36.3-36.3-95.2-36.3-131.5,0c-36.3,36.3-36.3,95.2,0,131.5c36.3,36.3,95.2,36.3,131.5,0l-23.7-23.7
			C358.5,495.7,320.7,495.7,297.5,472.5z"/>
	</g>
</g>
<g>
	<path class="st3" d="M762.4,497.6v2h5.7v18.7h2.2v-18.7h5.7v-2H762.4z"/>
	<polygon class="st3" points="798,497.6 798,518.4 795.8,518.4 795.8,501.9 788.8,512 788.6,512 781.7,501.9 781.7,518.4 
		779.4,518.4 779.4,497.6 781.4,497.6 788.7,508.3 796,497.6 	"/>
</g>
<g>
	<g>
		<path class="st4" d="M126.7,628.5c-3.3,0-6.4-0.6-9.2-1.8c-2.8-1.2-5.3-2.9-7.4-5c-2.1-2.1-3.8-4.7-5-7.6
			c-1.2-2.9-1.8-6.1-1.8-9.5c0-3.4,0.6-6.6,1.7-9.5c1.2-2.9,2.8-5.4,4.9-7.6c2.1-2.1,4.5-3.8,7.3-5s5.9-1.8,9.2-1.8
			c3.3,0,6.3,0.6,8.9,1.7s4.8,2.6,6.7,4.4c1.8,1.8,3.1,3.9,3.9,6l-7.5,3.6c-0.9-2.4-2.3-4.3-4.4-5.8c-2.1-1.5-4.6-2.3-7.5-2.3
			c-2.9,0-5.4,0.7-7.7,2c-2.2,1.4-3.9,3.2-5.1,5.6c-1.2,2.4-1.8,5.2-1.8,8.4s0.6,6,1.9,8.5s3,4.3,5.2,5.7c2.2,1.4,4.8,2,7.7,2
			c2.3,0,4.5-0.5,6.4-1.4c2-0.9,3.6-2.3,4.8-4s1.8-3.8,1.8-6.1v-3.5l3.8,3.3h-17.1v-7.1h21.7v4.7c0,3.6-0.6,6.7-1.8,9.4
			c-1.2,2.7-2.8,5-4.9,6.9c-2,1.9-4.4,3.2-6.9,4.2C132.1,628.1,129.5,628.5,126.7,628.5z"/>
		<path class="st4" d="M154.2,627.8v-33.7h7.7v7.5l-0.6-1.1c0.8-2.5,2-4.3,3.7-5.3c1.7-1,3.7-1.5,6-1.5h2v7.3h-2.9
			c-2.3,0-4.2,0.7-5.6,2.1c-1.4,1.4-2.1,3.4-2.1,6v18.8H154.2z"/>
		<path class="st4" d="M193.5,628.5c-3.5,0-6.5-0.8-9.1-2.4c-2.6-1.6-4.7-3.7-6.1-6.4c-1.4-2.7-2.2-5.7-2.2-8.9c0-3.4,0.7-6.4,2.2-9
			c1.5-2.6,3.5-4.7,6-6.2s5.4-2.3,8.6-2.3c2.6,0,5,0.4,7,1.3s3.7,2.1,5.1,3.6c1.4,1.5,2.5,3.3,3.2,5.2c0.7,2,1.1,4.1,1.1,6.4
			c0,0.6,0,1.2-0.1,1.8c-0.1,0.6-0.2,1.1-0.3,1.6h-26V607h21.5l-3.9,2.9c0.4-1.9,0.3-3.6-0.2-5.1c-0.6-1.5-1.5-2.7-2.7-3.5
			c-1.3-0.9-2.8-1.3-4.6-1.3c-1.7,0-3.2,0.4-4.5,1.3c-1.3,0.9-2.3,2.1-3,3.7s-0.9,3.6-0.8,5.9c-0.2,2.1,0.1,3.9,0.8,5.5
			c0.7,1.6,1.8,2.8,3.2,3.7c1.4,0.9,3.1,1.3,4.9,1.3c1.9,0,3.4-0.4,4.7-1.2c1.3-0.8,2.3-1.8,3.1-3.2l6.6,3.2c-0.7,1.6-1.7,3-3.1,4.3
			c-1.4,1.2-3.1,2.2-5,2.9C197.8,628.2,195.7,628.5,193.5,628.5z"/>
		<path class="st4" d="M215.3,627.8v-33.7h7.7v7.8l-0.9-1.2c0.6-2.5,1.9-4.3,3.7-5.5c1.9-1.2,4.1-1.8,6.6-1.8c2.8,0,5.2,0.7,7.3,2.2
			c2.1,1.4,3.5,3.3,4.1,5.7l-2.3,0.2c1-2.7,2.6-4.7,4.6-6c2.1-1.3,4.4-2,7.1-2c2.4,0,4.5,0.5,6.4,1.6c1.9,1.1,3.4,2.6,4.4,4.5
			c1.1,1.9,1.6,4.1,1.6,6.7v21.7h-8.1V608c0-1.5-0.3-2.8-0.8-3.8c-0.5-1.1-1.3-1.9-2.3-2.5c-1-0.6-2.1-0.9-3.4-0.9
			c-1.3,0-2.4,0.3-3.4,0.9c-1,0.6-1.8,1.4-2.3,2.5c-0.5,1.1-0.8,2.4-0.8,3.8v19.8h-8.1V608c0-1.5-0.3-2.8-0.8-3.8
			c-0.5-1.1-1.3-1.9-2.3-2.5c-1-0.6-2.1-0.9-3.4-0.9c-1.3,0-2.4,0.3-3.4,0.9s-1.8,1.4-2.3,2.5c-0.5,1.1-0.8,2.4-0.8,3.8v19.8H215.3z
			"/>
		<path class="st4" d="M288.4,628.5c-3.3,0-6.2-0.8-8.8-2.3c-2.6-1.5-4.6-3.7-6.1-6.4s-2.2-5.7-2.2-8.9c0-3.3,0.8-6.3,2.3-8.9
			c1.5-2.6,3.5-4.8,6.1-6.3c2.6-1.6,5.5-2.4,8.7-2.4c2.6,0,4.8,0.5,6.9,1.5c2,1,3.6,2.4,4.7,4.2l-1.2,1.7v-19.9h8.1v46.9h-7.7v-6.5
			l0.9,1.6c-1.2,1.9-2.8,3.3-4.8,4.2C293.1,628.1,290.8,628.5,288.4,628.5z M289.2,621.1c1.8,0,3.4-0.4,4.9-1.3s2.5-2.1,3.3-3.6
			c0.8-1.5,1.2-3.3,1.2-5.3c0-1.9-0.4-3.7-1.2-5.2c-0.8-1.5-1.9-2.7-3.3-3.6s-3-1.3-4.9-1.3c-1.8,0-3.5,0.4-4.9,1.3
			c-1.4,0.9-2.6,2.1-3.4,3.6c-0.8,1.5-1.2,3.3-1.2,5.2c0,2,0.4,3.7,1.2,5.3c0.8,1.5,1.9,2.7,3.4,3.6
			C285.8,620.7,287.4,621.1,289.2,621.1z"/>
		<path class="st4" d="M324.6,628.5c-2.4,0-4.4-0.4-6.2-1.2c-1.8-0.8-3.1-1.9-4.1-3.4c-1-1.5-1.4-3.2-1.4-5.1c0-1.9,0.4-3.5,1.3-5
			c0.8-1.5,2.1-2.7,3.9-3.7c1.7-1,3.9-1.7,6.6-2.1l11-1.8v6.2l-9.4,1.7c-1.6,0.3-2.8,0.8-3.6,1.5c-0.8,0.7-1.2,1.7-1.2,2.9
			c0,1.2,0.4,2.1,1.3,2.8c0.9,0.7,2,1,3.3,1c1.7,0,3.2-0.4,4.5-1.1c1.3-0.7,2.3-1.7,3-3c0.7-1.3,1.1-2.7,1.1-4.2v-8.7
			c0-1.4-0.6-2.7-1.7-3.6c-1.1-1-2.6-1.5-4.5-1.5c-1.7,0-3.3,0.5-4.6,1.4c-1.3,1-2.3,2.2-2.9,3.7l-6.6-3.2c0.7-1.8,1.7-3.3,3.1-4.6
			c1.4-1.3,3.1-2.3,5.1-3.1c1.9-0.7,4-1.1,6.3-1.1c2.8,0,5.2,0.5,7.3,1.5c2.1,1,3.8,2.4,4.9,4.2c1.2,1.8,1.8,3.9,1.8,6.3v22.4h-7.7
			V622l1.7-0.1c-0.9,1.4-1.9,2.6-3.1,3.6c-1.2,1-2.6,1.7-4.1,2.2C328.1,628.3,326.4,628.5,324.6,628.5z"/>
	</g>
</g>
</svg>
